PathFileType	4	(X/Y/Z)	C:/Users/beibeiliu/ov580/test_trc/User1\sequence.25_training_dense_left.trc
DataRate	CameraRate	NumFrames	NumMarkers	Units	OrigDataRate	OrigDataStartFrame	OrigNumFrames
120	120	17	19	mm	120	91	242
Frame#	Time	ThumbCMC			ThumbMCP			ThumbIP			ThumbTip			IndexMCP			IndexPIP			IndexTip			MiddleMCP			MiddlePIP			MiddleTip			RingMCP			RingPIP			RingTip			PinkyMCP			PinkyPIP			PinkyTip			BackHand1			BackHand2			BackHand3	
		X0	Y0	Z0	X1	Y1	Z1	X2	Y2	Z2	X3	Y3	Z3	X4	Y4	Z4	X5	Y5	Z5	X6	Y6	Z6	X7	Y7	Z7	X8	Y8	Z8	X9	Y9	Z9	X10	Y10	Z10	X11	Y11	Z11	X12	Y12	Z12	X13	Y13	Z13	X14	Y14	Z14	X15	Y15	Z15	X16	Y16	Z16	X17	Y17	Z17	X18	Y18	Z18	
90	0.75	-150.791	-10.3326	75.372	-142.98	-27.0335	42.4896	-139.337	-27.6486	8.51278	-151.468	-19.4613	-14.357	-117.428	12.3637	-2.52795	-112.383	9.41435	-26.4903	-108.968	9.30955	-56.474	-139.688	9.82087	-17.9079	-148.575	-13.4716	-37.0639	-169.202	-42.6975	-47.6496	-167.47	9.66341	-12.8614	-186.268	-20.1589	-1.91116	-191	-15.4924	34.754	-192.355	17.2251	-7.65812	-192.02	-4.89878	8.8117	-180.193	3.76134	36.6909	-163.111	47.2327	33.7815	-178.833	54.5239	62.911	-141.745	31.2429	63.7938	
91	0.758333	-147.726	-11.9238	77.3281	-140.438	-33.5511	45.0253	-139.695	-33.2018	13.8531	-150.199	-25.8975	-9.88531	-109.536	4.77115	-3.41351	-108.176	3.63508	-25.4227	-104.528	2.06966	-52.1051	-133.004	4.67409	-14.6101	-145.667	-22.3354	-35.8444	-167.138	-46.1028	-44.0097	-165.745	2.43645	-13.1657	-185.029	-19.8591	-1.07816	-190.437	-17.5032	32.4568	-183.684	19.7686	-5.23055	-191.586	-5.69466	11.909	-179.135	2.99262	42.5094	-156.457	46.4955	34.1274	-169.835	53.7976	64.8756	-139.032	28.494	62.5609	
92	0.766667	-147.308	-12.9128	78.4747	-143.104	-32.8452	47.4615	-139.155	-32.9878	13.5241	-150.888	-24.1137	-8.79324	-110.034	2.91491	1.4919	-104.307	0.214421	-25.3337	-104.133	-1.22838	-49.0532	-133.811	3.52891	-16.0652	-146.08	-21.669	-33.4435	-166.447	-50.6979	-40.058	-164.655	3.66508	-11.5205	-183.942	-21.9867	1.90268	-187.971	-22.0448	32.5148	-183.254	16.8096	-5.24542	-188.491	-7.28836	12.3416	-174.275	1.68905	42.7039	-156.006	46.7404	33.9748	-167.362	52.2782	69.8799	-139.967	29.2999	65.5305	
93	0.775	-147.148	-12.2842	78.0036	-141.243	-33.1302	44.3094	-141.993	-33.2729	16.8817	-150.507	-29.2988	-10.8815	-106.083	-0.306396	3.29723	-103.029	-3.51873	-22.5327	-100.482	-5.93309	-51.5167	-131.534	-2.52424	-17.1329	-143.535	-23.4222	-32.5421	-168.968	-48.2625	-37.8947	-165.175	0.882283	-11.2381	-182.104	-21.5077	0.781212	-185.951	-22.1368	36.0035	-178.941	14.5607	-4.39502	-186.278	-8.15807	14.0208	-173.799	1.82218	43.6717	-149.593	44.3628	35.6249	-163.071	49.7574	68.3078	-134.608	27.8575	66.1357	
94	0.783333	-147.792	-9.60997	77.3522	-141.746	-36.4753	44.5486	-141.63	-33.3596	11.3664	-153.046	-26.1705	-9.43281	-106.613	-2.4197	-2.03391	-106.773	-2.82026	-26.0213	-104.842	-6.95328	-51.1644	-131.517	-3.21729	-17.6554	-145.275	-26.862	-33.5356	-173.305	-49.7906	-37.5078	-164.695	1.48304	-10.7198	-181.686	-22.464	1.21024	-189.91	-19.4772	37.192	-180.548	14.547	-3.46311	-192.573	-5.88818	12.7128	-176.624	-0.268823	45.3738	-151.322	42.7996	35.8622	-162.591	52.8838	67.7237	-135.668	28.5932	63.6322	
95	0.791667	-147.61	-9.82705	74.9483	-145.333	-35.6153	44.0596	-145.805	-29.4208	11.2852	-158.076	-27.3973	-12.8896	-110.754	-0.525002	-6.85727	-111.09	-2.21824	-31.7594	-111.788	-5.2972	-59.7695	-138.24	0.486285	-20.7231	-149.077	-21.8957	-34.2949	-178.618	-46.8518	-37.1798	-170.455	3.56839	-11.1789	-187.352	-18.6859	0.707886	-192.388	-18.1449	33.7977	-186.966	20.2433	-3.77178	-194.097	-5.46199	17.7667	-176.674	0.910815	43.4804	-152.501	46.756	31.175	-163.731	51.3223	67.4357	-131.54	26.257	63.0914	
96	0.8	-148.732	-10.9882	71.474	-149.539	-31.6815	39.1778	-151.943	-32.0094	4.99539	-165.645	-21.7014	-14.8708	-116.834	-0.873408	-7.61028	-114.255	-5.07485	-34.1702	-118.609	-5.38401	-62.9514	-144.415	3.27309	-19.3729	-161.234	-20.5229	-37.2549	-184.596	-43.3648	-38.9528	-172.687	3.64481	-11.69	-193.11	-19.3345	3.2838	-195.988	-15.4067	35.4189	-190.783	17.5508	-3.52636	-197.219	-2.77824	16.8587	-184.585	3.06394	44.4463	-155.972	47.3514	30.7049	-163.304	55.9778	64.5621	-135.528	24.5675	62.8904	
97	0.808333	-152.977	-10.7006	70.1995	-156.088	-33.4952	38.1059	-161.11	-30.0888	9.02588	-174.599	-19.5511	-17.6956	-122.345	-1.37828	-8.12466	-123.066	-5.37869	-38.7225	-127.099	-6.51588	-65.6442	-152.955	4.70132	-21.8988	-169.713	-21.2355	-38.449	-193.381	-44.0222	-39.5837	-179.577	6.15451	-11.8936	-201.889	-14.4005	3.0177	-202.175	-13.0628	36.4424	-196.329	20.8222	-2.71986	-202.274	-1.45136	17.8189	-187.63	3.71743	46.5056	-155.93	46.0915	31.1354	-167.443	54.9921	67.9957	-138.423	26.1047	56.6396	
98	0.816667	-153.745	-13.0258	70.3118	-161.106	-36.9738	37.0127	-167.035	-30.5191	3.5681	-181.669	-18.5489	-14.534	-132.025	0.0354042	-11.9491	-133.646	-4.55526	-41.2261	-138.018	-4.69778	-65.6651	-159.737	3.83071	-23.404	-175.413	-17.5321	-37.2467	-205.321	-42.3715	-39.5691	-187.736	8.88372	-11.5074	-208.327	-10.7197	2.80903	-206.924	-12.7032	35.42	-201.337	23.4566	-0.95121	-207.912	1.92281	18.3434	-192.248	4.88624	48.1053	-161.092	47.0443	29.0942	-168.874	56.2183	67.0168	-141.409	24.0871	59.4112	
99	0.825	-157.948	-10.1445	65.2045	-166.127	-33.6346	34.3635	-174.553	-32.8009	5.78662	-191.067	-21.0719	-14.3633	-140.274	-0.647692	-17.2556	-142.828	-3.49488	-39.7029	-149.142	-4.60866	-68.0158	-167.535	4.8405	-23.7693	-187.585	-19.3647	-37.6758	-215.469	-41.8504	-38.2112	-196.552	9.42108	-10.8677	-212.951	-12.1235	5.66112	-209.447	-12.2466	38.5956	-204.681	26.324	-0.457897	-215.287	4.67845	18.162	-198.278	5.02541	45.0068	-165.238	49.9616	29.3389	-168.038	55.3412	63.9937	-143.918	27.8122	56.9447	
100	0.833333	-164.141	-9.86832	69.2622	-172.032	-35.5196	34.5931	-182.143	-32.7619	7.40452	-199.557	-22.5766	-14.5032	-147.989	-2.60377	-17.0442	-153.937	-4.67576	-40.5046	-161.523	-3.87935	-70.3353	-178.931	1.47391	-26.8484	-197.038	-17.6845	-36.7266	-224.321	-42.0292	-35.4948	-200.908	10.8876	-10.0973	-219.464	-11.4559	7.289	-215.186	-9.1946	43.0627	-216.503	27.2756	2.25626	-220.928	4.89507	20.7257	-203.162	5.39919	48.0441	-170.338	49.1695	27.3511	-170.856	54.5731	66.7748	-148.081	23.7278	53.62	
101	0.841667	-164.4	-11.02	63.543	-177.889	-31.8912	37.1579	-188.981	-29.1302	8.88988	-206.578	-21.2702	-11.319	-156.111	-3.81595	-19.6003	-162.864	-7.35141	-41.4967	-173.573	-4.51555	-71.8828	-184.42	1.95518	-23.7911	-210.055	-20.5915	-34.547	-235.587	-38.718	-29.9106	-209.131	8.37771	-8.98217	-228.606	-11.3876	14.4325	-219.826	-8.387	44.7786	-222.936	26.1617	3.64683	-226.408	5.05997	22.3429	-207.261	7.91621	51.1826	-174.622	48.8938	26.7356	-175.613	56.0344	60.1821	-149.54	24.5506	47.8938	
102	0.85	-166.437	-10.7076	63.1262	-181.077	-33.3347	34.0069	-195.312	-30.77	9.3816	-214.717	-21.0939	-9.61101	-162.767	-5.52069	-23.957	-171.289	-8.55343	-44.7862	-183.605	-6.33479	-67.7988	-194.462	1.60704	-25.9836	-214.17	-23.1862	-32.4338	-242.685	-41.1587	-20.7987	-217.309	10.6114	-6.70413	-231.84	-12.3424	16.111	-223.568	-6.16846	47.4177	-225.583	26.0453	5.17441	-229.239	4.90393	27.2953	-210.388	10.5146	52.832	-180.595	49.3763	24.3481	-175.529	54.5535	59.0025	-155.057	27.5016	45.391	
103	0.858333	-172.333	-8.27774	63.5785	-185.523	-32.5104	38.2584	-200.438	-34.5257	10.878	-220.729	-22.3495	-8.1305	-170.69	-4.41827	-22.022	-180.513	-8.32604	-45.1179	-192.486	-9.85734	-69.7303	-199.221	-0.192615	-24.5194	-225.072	-23.5258	-28.6415	-246.417	-40.6849	-11.8707	-220.61	7.0865	-5.71836	-236.192	-12.672	16.8857	-224.237	-5.69511	49.4859	-232.1	23.7717	6.99711	-233.206	4.83016	30.2201	-210.59	10.2131	53.9585	-184.759	47.212	24.1178	-178.52	54.9484	58.2107	-159.545	26.3906	45.2256	
104	0.866667	-174.126	-8.84629	66.6255	-188.387	-32.5624	38.0494	-204.262	-35.5368	11.8104	-225.642	-21.8834	-7.38704	-175.845	-7.08859	-21.8722	-188.848	-9.82803	-45.4105	-202.487	-9.92396	-69.7387	-205.888	0.00250294	-23.1553	-230.006	-23.6352	-26.3078	-252.91	-42.6199	-0.539427	-229.087	5.70695	-4.16316	-241.036	-12.7616	17.1317	-225.874	-7.41693	49.6	-234.247	26.1323	8.51066	-238.237	5.16159	31.1322	-216.986	9.50624	55.6158	-187.683	48.5984	23.6109	-181.053	59.3782	61.7363	-161.554	22.7597	47.8448	
105	0.875	-175.633	-9.69065	62.9798	-191.467	-35.1357	40.1498	-206.767	-32.8179	13.2001	-226.479	-27.5303	-1.56052	-180.089	-11.8048	-21.5432	-193.703	-11.7694	-41.1317	-206.483	-14.3543	-68.9811	-206.758	-5.04097	-22.9027	-233.601	-24.4174	-24.7638	-255.711	-42.2938	1.99695	-227.965	8.6847	-3.99556	-243.223	-14.5865	21.6453	-226.21	-6.15574	52.1109	-240.456	26.0583	10.6627	-243.805	5.85526	32.5408	-218.001	6.76654	51.3729	-187.101	43.2361	24.8345	-179.582	54.6554	60.6117	-165.998	22.8732	42.3785	
106	0.883333	-175.082	-15.1308	65.0496	-192.999	-40.1968	41.7305	-209.512	-36.555	13.0999	-231.338	-23.8084	-3.69876	-185.737	-13.483	-24.3684	-197.161	-15.5873	-43.7307	-212.285	-15.9184	-66.0677	-214.8	-6.10877	-23.8713	-239.247	-25.4161	-21.1009	-260.323	-39.2941	9.56612	-231.249	6.88402	-2.78128	-247.498	-10.7405	22.2812	-231.225	-5.30535	50.8229	-242.057	20.9997	11.2892	-247.489	6.65897	35.2725	-218.211	10.2823	56.3591	-191.495	43.2923	22.5616	-180.967	53.7393	60.3767	-164.135	18.2731	44.943	
